PathFileType	4	(X/Y/Z)	62_2_6_p0_0-587_filt_butterworth.trc
DataRate	CameraRate	NumFrames	NumMarkers	Units	OrigDataRate	OrigDataStartFrame	OrigNumFrames
49.0	49.0	7	27	m	49.0	146	587
Frame#	Time	RHip			RKnee			RAnkle			RBigToe			RSmallToe			RHeel			LHip			LKnee			LAnkle			LBigToe			LSmallToe			LHeel			Neck			Head			Nose			RShoulder			RElbow			RWrist			RThumb			RIndex			RPinky			LShoulder			LElbow			LWrist			LThumb			LIndex			LPinky			
		X1	Y1	Z1	X2	Y2	Z2	X3	Y3	Z3	X4	Y4	Z4	X5	Y5	Z5	X6	Y6	Z6	X7	Y7	Z7	X8	Y8	Z8	X9	Y9	Z9	X10	Y10	Z10	X11	Y11	Z11	X12	Y12	Z12	X13	Y13	Z13	X14	Y14	Z14	X15	Y15	Z15	X16	Y16	Z16	X17	Y17	Z17	X18	Y18	Z18	X19	Y19	Z19	X20	Y20	Z20	X21	Y21	Z21	X22	Y22	Z22	X23	Y23	Z23	X24	Y24	Z24	X25	Y25	Z25	X26	Y26	Z26	X27	Y27	Z27	
146	2.979591836734694	0.3103528395786081	0.458645947841379	0.2792473560792251	0.31789489311243396	0.7157135621573422	0.5817355956079232	0.31187795112723804	0.9661210484744469	0.8657223820659177	0.30999938882970496	0.9285748821784742	0.9576052269194943	0.35440426228930844	0.9159538603789326	0.9490699202802366	0.29722139052229185	1.0536905989129373	0.8668358913100048	0.1135823787740993	0.5052734719784323	0.23127969042625807	0.11573601059936138	0.7897697010148687	0.5552236696783684	0.14266969839618465	1.0611778764236104	0.8376962642217719	0.1105941247362935	0.9181829696674567	0.9369787464542477	0.07219313504554571	0.9810551275773132	0.9035474082850721	0.16406200655851125	1.0931565931994518	0.8507299606554287	0.22903663732103655	0.11541901321199619	-0.19388021198749195	0.21016967807991435	-0.07760977771436772	-0.35831052780023	0.18840428983326846	-0.03301313118202739	-0.21576846080865766	0.377261045162236	0.13040205706315794	-0.10499515668261945	0.4501115128731056	0.3105188695678579	0.12040443083501985	0.3675839351716862	0.43483624553370803	0.3184352508747743	0.28683975479095275	0.448022987958556	0.41149756555757105	0.2923705062468869	0.44542168735543386	0.42619252482476655	0.34549669585623605	0.48378105352820716	0.4142207038293195	0.07179274988744398	0.21266349819096456	-0.17120998712783986	0.009491054448926867	0.3296192111935394	0.020417804283149703	-0.026969222213957755	0.3093647454161711	0.24273795871302348	-0.0020713169700183297	0.3038888373007897	0.3453020717208298	-0.029503011532121877	0.2626451825970307	0.37004293718208425	-0.04524054021280342	0.3356897432496738	0.34228331896857855
147	3.0	0.31043926936263305	0.45537268467391845	0.28040210755197026	0.3179117014801283	0.715772618322513	0.5817415288790724	0.31186177300385676	0.9660979609801774	0.8656807698411074	0.31023359887906143	0.9292319595729751	0.957432468580348	0.3543539260056841	0.9164650040917914	0.9484233830263438	0.29722027297516007	1.0537388535480936	0.8668292188070055	0.11413828152092834	0.504949912370006	0.23135150703655374	0.11604167640925597	0.7896864710052474	0.5554395757254122	0.14267205211035827	1.0612527642309906	0.8377217215100472	0.11055053163728804	0.9180703711010616	0.9369432835512829	0.07426529270083358	0.9846783690726874	0.9031362869499929	0.16381799852681192	1.094135620376702	0.851582412187655	0.22874403504703597	0.11530451305548364	-0.19381846691163884	0.2122855238493932	-0.07449203516064878	-0.3607202602538915	0.1880274333425876	-0.02913693289288999	-0.21782715528310126	0.37708328949663555	0.12969312986470677	-0.10565688527843688	0.45007712125781413	0.3111367732991046	0.12128101648198977	0.3675620011728219	0.43486839923815934	0.3184918678633813	0.286661676887778	0.44816056445900015	0.41144408903394347	0.2938770639788215	0.45048677674306126	0.4262581525727548	0.3469012414085878	0.4852283194874438	0.4145207133612046	0.0717762569331696	0.21259663035852902	-0.17123889656921482	0.009496920093034517	0.3296933821954867	0.020510587810818708	-0.02697610282019299	0.3093604310054322	0.24270039698964432	-0.0024249815961153516	0.3039196693143738	0.3455255563762886	-0.030443782780860768	0.2605457652715975	0.3707286210906471	-0.045307247998260136	0.337674822845961	0.34083512142800443
148	3.020408163265306	0.3104992569774386	0.44877074498444114	0.28248247941244153	0.31785222441437694	0.7158992887582789	0.582265383464136	0.3118388846160639	0.9660539096744613	0.8656967242577106	0.31010390013871714	0.9298443783189153	0.9573663147077524	0.35401593595736636	0.9165234893961267	0.9483035109798319	0.2972217670631902	1.0537991431080502	0.866813371877331	0.11434298809271419	0.5095011326473107	0.22956781612714888	0.11612094622506473	0.790454054532955	0.5563844757907324	0.1426560424238222	1.0612313632542119	0.8377401685801644	0.11041263522754156	0.9174890879349795	0.9365825991529335	0.07547271996501415	0.9870092630569292	0.9024580552628183	0.16376784945299092	1.0943586720956062	0.8517506258326935	0.22886463047740885	0.1152606280693466	-0.19380155649822275	0.21375076576969382	-0.07251773907663808	-0.36221223701539496	0.18769076204023566	-0.024796575085923984	-0.22071360946314927	0.37717197862158064	0.12973342217055414	-0.10590182124851891	0.45001970773748884	0.3119621252063365	0.12258960444367256	0.36758416440593744	0.4350070358143493	0.31850545490223847	0.2864822808587672	0.4483767539943804	0.4116413355507687	0.2946215637525764	0.45382526665971706	0.42609356521050057	0.3477093296560398	0.48553989009925635	0.4141509431132055	0.0717901273770546	0.21262134820370543	-0.17116062269948207	0.009535391838112785	0.32976888776253566	0.02059397553938486	-0.02698301603477482	0.30935707364547155	0.24269380177096717	-0.0025551332296439738	0.30390054620508294	0.3456198127420337	-0.029565967582416627	0.26263872096968993	0.37004457400200474	-0.04521652715679394	0.33832650030002187	0.33905764845266495
149	3.0408163265306123	0.31025808313768	0.44232386833842263	0.28460658470613476	0.3176558632665476	0.7161217816705854	0.583587592866931	0.3118252032177369	0.9660112404574331	0.8657560952243039	0.30988990874055333	0.9303649523372894	0.957352947454004	0.3541384706429506	0.9170631316348992	0.9488031299946385	0.29722095552174366	1.0538621405836344	0.8667804089801674	0.1139045306452361	0.5137620036526237	0.22792356889724977	0.11615481088263882	0.7917897277241008	0.5577229085497756	0.14261417948229987	1.0611322642912036	0.8377387824619618	0.11006624357689182	0.9161947137962205	0.93556869317945	0.07544752039284418	0.9867986710731456	0.9012319913505636	0.16379541272383633	1.0942408014597567	0.8516419049533119	0.22894168607693155	0.1151995240646733	-0.19384783050089444	0.21407560834526146	-0.07140051886369929	-0.3629912107092187	0.18757831614727252	-0.021898548460600693	-0.22267714555994128	0.37735624515679644	0.1300627448138788	-0.10596030144248181	0.44997942447223294	0.31241961284904907	0.12353341390888276	0.36763262697266086	0.43539013761777984	0.3184209757392719	0.2864268962372448	0.4490796507985783	0.4124391159573539	0.29576780082247023	0.4540873487525372	0.4254608646387691	0.3494196924020388	0.4873566921786383	0.412439245937803	0.0718517520341324	0.21269111094721754	-0.1711025265067532	0.009573928320345156	0.3297846538446186	0.02064412737189206	-0.026997790140668426	0.3093628680459888	0.24273828816465806	-0.002531529050215367	0.3038992972606891	0.34557668219064647	-0.02773115879071413	0.26691569326947673	0.36863007449478913	-0.04519032516479059	0.33788128109014515	0.33805242215421394
150	3.061224489795918	0.30963924300357076	0.4405268180251031	0.285924204545529	0.3174433105070853	0.7164408886766817	0.5845717288979015	0.3118211094112625	0.9659978118325072	0.8658069851564728	0.309831869267746	0.9305579363966925	0.9573051414444007	0.35576482880317895	0.9171068460232794	0.9494183230748962	0.29722907497231765	1.053929500941576	0.866716920329667	0.11317917816800889	0.5150997935309664	0.22742656326347221	0.1162402840604052	0.792713875135863	0.5585978271627692	0.1425561716995142	1.061007868380954	0.8377150583610938	0.10960170127676648	0.9146280682247846	0.9341683594943647	0.07492875974848064	0.9850899316177938	0.8996316974106802	0.1638016248520377	1.09417675318071	0.8515879356128121	0.22892704930642765	0.11512422145230478	-0.193926693098656	0.2138370180449238	-0.06887301719415957	-0.36473697860667026	0.1875708336002067	-0.021229800245155646	-0.22311726235658247	0.3769638279919767	0.12950825046412606	-0.10556851813514867	0.4499690653460081	0.31245354997070723	0.12376013701664007	0.36769578006417186	0.43587321414882385	0.3182780893531156	0.2868282056091918	0.4501159390593569	0.4136159376209749	0.2978295275976333	0.45320468340399894	0.4245095603721565	0.3519586607649562	0.49094368192472815	0.4103722674025518	0.07192426006230858	0.21282336077380634	-0.1710265831769181	0.00958417995922507	0.3297076839586718	0.020693180898545	-0.02701182295716158	0.30936933433076486	0.24278863854955363	-0.0024802445337802916	0.30390736459401807	0.3454960650539064	-0.026456853644381488	0.26985381586149276	0.3676422349458678	-0.04520961101984808	0.3374353940727498	0.3378638089890362
151	3.0816326530612246	0.308993947823564	0.44368524272040416	0.28613280727617807	0.31791212657144474	0.7175729232071582	0.5836399478644969	0.31183382769767143	0.9660394462442528	0.8657979938802299	0.3099098108845718	0.9305467071328952	0.9572998683485763	0.3584072380040121	0.9175640690147263	0.9496897339773698	0.297251928827052	1.0539906250903686	0.8666275394890707	0.1127575733275532	0.5148873376342706	0.22754814290079123	0.11629720715284914	0.7928954689031769	0.5587625714496338	0.14251079793668706	1.0608832555801349	0.8376836012587862	0.10931335449732933	0.913681852865025	0.9332409393282459	0.07453737646359387	0.9836738797061128	0.8985267775116355	0.16378088828292975	1.0942000685455608	0.8515965246802484	0.2289387100650933	0.11529804108911783	-0.1937702332608943	0.21350473611199305	-0.06489094147394558	-0.367544221641715	0.1875626366312724	-0.021554323087678476	-0.22289414496116153	0.3752884458799467	0.12702087733818018	-0.10415891072693492	0.4499682829179441	0.31239536197111717	0.12360430425095609	0.36777989955610496	0.43506113770936605	0.31856720688049367	0.2881452498952093	0.4497814608572547	0.4148121342795933	0.30022036253884643	0.45302212624187255	0.4238021210362787	0.35378427581227	0.49391917037346095	0.40922430827850037	0.07196289130239392	0.21298548118052424	-0.17091305028503023	0.00958581782540104	0.3296120172212742	0.020730664931510115	-0.02701429336516063	0.309352376055134	0.24278974609877185	-0.0024621777502756284	0.30391369843893457	0.34545917919012015	-0.02618885080703622	0.2704692209996733	0.36742554214400913	-0.045231494220765445	0.3372965317265134	0.33790833454403313
152	3.1020408163265305	0.30865567169567487	0.44761826518398273	0.28557997068749796	0.31990702622904604	0.7207620571839712	0.5814531755835373	0.3118662319328669	0.9660513119985492	0.8657481238428133	0.3099847829808991	0.9305505244197985	0.9574718847291848	0.36024798693813465	0.9206734534164008	0.9494709479494252	0.29728162050563095	1.0539731216108414	0.866560516992729	0.11277570914901516	0.5144122551562762	0.22777448220550056	0.11632568864420315	0.7928262282378888	0.5586724553273787	0.14249099642057306	1.0607669316111443	0.837653814811854	0.10929235934675077	0.9135332333333497	0.9330646745748442	0.07414869599315355	0.983171835309733	0.8982403632441887	0.16376853432145816	1.0942154738434817	0.8515785064645389	0.22906189870227323	0.11602888038244816	-0.19304234171690343	0.21320135893748776	-0.061944506152632264	-0.36966075230031925	0.18755339801126678	-0.021786031972253508	-0.2227282481549498	0.37286245031374615	0.12342442156536139	-0.10212322648399313	0.44998589998241345	0.31234546139017644	0.1234712695224095	0.36790211206614054	0.43122542976496797	0.31991881490860713	0.2901288080415553	0.44621267009028565	0.41627607952635626	0.3024876273906617	0.45335316540256887	0.4236147120639539	0.3543448601613894	0.49497344061525317	0.40905684684094334	0.07196631474953186	0.21309260702428512	-0.17082100034833703	0.009676097475805428	0.3298341907486399	0.02075850082536435	-0.027003606382074462	0.30929026185375896	0.2426927036887509	-0.002456093544073934	0.3039320849047777	0.34544485511794465	-0.026340653243297454	0.2701322762645111	0.3675454343766407	-0.04525357014715515	0.3374791161281804	0.33815155752482406
